<?xml version="1.0" encoding="utf-8"?>
<!-- Generator: Adobe Illustrator 16.0.0, SVG Export Plug-In . SVG Version: 6.00 Build 0)  -->
<!DOCTYPE svg PUBLIC "-//W3C//DTD SVG 1.1//EN" "http://www.w3.org/Graphics/SVG/1.1/DTD/svg11.dtd">
<svg version="1.1" id="RAW_ICONS_-_SQUARE__x2F__ROUNDED__x2F__CIRCLE"
	 xmlns="http://www.w3.org/2000/svg" xmlns:xlink="http://www.w3.org/1999/xlink" x="0px" y="0px" width="166.361px"
	 height="21.94px" viewBox="0 0 166.361 21.94" enable-background="new 0 0 166.361 21.94" xml:space="preserve">
<path fill="#FFFFFF" d="M107.455,13.836c-0.992,0-1.926-0.535-2.245-1.145c0,0-0.534,2.117-0.646,2.525
	c-0.398,1.445-1.569,2.891-1.659,3.008c-0.063,0.082-0.204,0.057-0.219-0.053c-0.025-0.184-0.324-2.006,0.027-3.492
	c0.177-0.746,1.183-5.008,1.183-5.008s-0.294-0.586-0.294-1.453c0-1.363,0.79-2.379,1.773-2.379c0.836,0,1.238,0.627,1.238,1.379
	c0,0.84-0.534,2.098-0.811,3.262c-0.23,0.975,0.488,1.77,1.45,1.77c1.741,0,2.914-2.236,2.914-4.887
	c0-2.014-1.356-3.521-3.824-3.521c-2.787,0-4.524,2.08-4.524,4.402c0,0.801,0.236,1.365,0.606,1.801
	c0.17,0.201,0.193,0.283,0.132,0.514c-0.045,0.168-0.145,0.576-0.188,0.736c-0.061,0.234-0.25,0.316-0.46,0.23
	c-1.284-0.523-1.882-1.93-1.882-3.512c0-2.609,2.201-5.74,6.568-5.74c3.509,0,5.818,2.539,5.818,5.266
	C112.414,11.143,110.409,13.836,107.455,13.836z"/>
<path fill="#FFFFFF" d="M64.521,7.011c0.007,0.141,0.01,0.281,0.01,0.424c0,4.338-3.302,9.34-9.34,9.34
	c-1.854,0-3.579-0.543-5.032-1.475c0.258,0.029,0.519,0.045,0.783,0.045c1.539,0,2.953-0.523,4.076-1.404
	c-1.436-0.027-2.648-0.977-3.065-2.279c0.2,0.037,0.405,0.059,0.617,0.059c0.3,0,0.59-0.041,0.864-0.115
	c-1.5-0.303-2.633-1.629-2.633-3.219c0-0.014,0-0.027,0-0.041c0.443,0.246,0.949,0.393,1.487,0.41
	c-0.881-0.588-1.46-1.594-1.46-2.732c0-0.602,0.162-1.166,0.444-1.65c1.618,1.986,4.038,3.293,6.766,3.43
	c-0.056-0.24-0.085-0.49-0.085-0.748c0-1.812,1.47-3.281,3.283-3.281c0.943,0,1.797,0.398,2.396,1.035
	c0.747-0.146,1.45-0.42,2.085-0.797c-0.246,0.768-0.766,1.41-1.443,1.816c0.664-0.078,1.297-0.256,1.885-0.516
	C65.719,5.97,65.162,6.548,64.521,7.011z"/>
<path fill="#FFFFFF" d="M13.523,10.279h-2.242c0,3.582,0,7.994,0,7.994H7.958c0,0,0-4.367,0-7.994h-1.58V7.455h1.58V5.627
	c0-1.309,0.621-3.354,3.353-3.354l2.461,0.01v2.742c0,0-1.496,0-1.786,0c-0.291,0-0.705,0.145-0.705,0.77v1.66h2.533L13.523,10.279z
	"/>
<g>
	<circle fill="#FFFFFF" cx="149.832" cy="10.273" r="3.549"/>
	<circle fill="#FFFFFF" cx="158.734" cy="10.273" r="3.549"/>
</g>
</svg>
